<svg xmlns="http://www.w3.org/2000/svg" viewBox="0 0 703.7 705.82">
  <path d="M475.93,677.63h0c-53.59-28.89-119.44-21.82-165.68,17.78h0c-22.54,19.3-57.38,10.7-68.34-16.88h0c-22.48-56.58-77.47-93.49-138.35-92.88h0c-29.67.3-50.83-28.69-41.5-56.85h0c19.14-57.79.75-121.41-46.28-160.07h0c-22.92-18.84-20.5-54.65,4.76-70.23h0c51.82-31.97,78.62-92.52,67.44-152.37h0c-5.45-29.17,19.42-55.04,48.78-50.74h0c60.24,8.82,119.7-20.34,149.61-73.37h0c14.58-25.85,50.26-29.68,69.99-7.51h0c40.48,45.48,104.77,61.36,161.77,39.96h0c27.78-10.43,57.57,9.57,58.44,39.23h0c1.78,60.86,40.82,114.35,98.24,134.59h0c27.99,9.87,37.95,44.34,19.55,67.62h0c-37.76,47.76-42.23,113.83-11.26,166.25h0c15.1,25.55.57,58.36-28.49,64.37h0c-59.62,12.32-105.52,60.06-115.49,120.12h0c-4.86,29.27-37.08,45.08-63.2,31Z" fill="#f26ba4"/>
</svg>
