<?xml version="1.0" encoding="UTF-8"?>
<svg id="Layer_1" data-name="Layer 1" xmlns="http://www.w3.org/2000/svg" viewBox="0 0 563.68 563.68">
  <defs>
    <style>
      .cls-1 {
        fill: #c5deda;
      }
    </style>
  </defs>
  <path class="cls-1" d="M296.56,12.89l7.25,54.51c13.34,100.26,92.22,179.13,192.48,192.48l54.51,7.25c17.18,2.29,17.18,27.15,0,29.43l-54.51,7.25c-100.26,13.34-179.13,92.22-192.48,192.48l-7.25,54.51c-2.29,17.18-27.15,17.18-29.43,0l-7.25-54.51c-13.34-100.26-92.22-179.13-192.48-192.48l-54.51-7.25c-17.18-2.29-17.18-27.15,0-29.43l54.51-7.25c100.26-13.34,179.13-92.22,192.48-192.48l7.25-54.51c2.29-17.18,27.15-17.18,29.43,0Z"/>
</svg>