<?xml version="1.0" encoding="UTF-8"?>
<svg id="Layer_1" data-name="Layer 1" xmlns="http://www.w3.org/2000/svg" xmlns:xlink="http://www.w3.org/1999/xlink" viewBox="0 0 771.84 771.84">
  <defs>
    <style>
      .cls-1 {
        fill: url(#linear-gradient);
      }
    </style>
    <linearGradient id="linear-gradient" x1="35.22" y1="385.92" x2="736.62" y2="385.92" gradientUnits="userSpaceOnUse">
      <stop offset="0" stop-color="#ed728b"/>
      <stop offset=".53" stop-color="#ff8d53"/>
      <stop offset="1" stop-color="#f0a398"/>
    </linearGradient>
  </defs>
  <path class="cls-1" d="M385.92,35.22c-193.69,0-350.7,157.02-350.7,350.7s157.02,350.7,350.7,350.7,350.7-157.02,350.7-350.7S579.61,35.22,385.92,35.22ZM612.87,327.72c-17.91,0-35.47-2.41-48.21-4.48l-77.49,230.39h-68.19l-34.44-100.56-36.16,100.56h-68.53l-54.76-159.79c-27.21-79.21-46.83-112.27-80.93-112.27-30.65,0-58.54,26.86-58.54,56.13,0,14.46,9.64,21.35,23.42,21.35,19.28,0,35.81-13.09,55.1-13.09,20.32,0,31.34,14.81,31.34,34.09,0,32.72-33.4,49.59-59.23,49.59-40.29,0-64.06-28.24-64.06-67.5,0-58.54,48.9-94.7,108.82-94.7,73.35,0,111.92,44.08,143.61,143.95l32.71,102.97c6.2-19.63,17.56-46.49,24.11-70.25l-24.79-72.66c-14.46-42.7-28.58-62.33-35.82-67.15v-2.07h126.04v2.07c-14.12,4.82-12.74,19.29-3.1,48.56l52,159.1c25.48-78.18,3.1-203.18-25.14-214.89l1.03-1.72c21.35,9.99,102.63,27.21,141.19,27.21,16.19,0,28.93-5.51,28.93-13.77,0-12.74-29.62-23.07-29.62-53.03,0-22.39,16.19-37.54,39.95-37.54,28.93,0,47.52,22.39,47.52,50.62,0,37.88-33.4,58.89-86.78,58.89Z"/>
</svg>